<svg width="1126" height="800" viewBox="0 0 1126 800" fill="none" xmlns="http://www.w3.org/2000/svg">
<rect width="1126" height="800" fill="#E5E5E5"/>
<g id="undraw_refreshing_ncum 1" clip-path="url(#clip0)">
<g id="background">
<path id="Vector" opacity="0.1" d="M491.84 734.39C587.54 734.39 665.12 721.33 665.12 705.22C665.12 689.11 587.54 676.05 491.84 676.05C396.14 676.05 318.56 689.11 318.56 705.22C318.56 721.33 396.14 734.39 491.84 734.39Z" fill="#00CCD8"/>
<path id="Vector_2" opacity="0.1" d="M156.51 783.28C234.818 783.28 298.3 770.22 298.3 754.11C298.3 738 234.818 724.94 156.51 724.94C78.2015 724.94 14.72 738 14.72 754.11C14.72 770.22 78.2015 783.28 156.51 783.28Z" fill="#00CCD8"/>
<path id="Vector_3" opacity="0.1" d="M1022.19 212.56C1012.03 188.95 998.281 167.05 981.44 147.63L416.07 142.06L881.59 76.7C851.523 64.7241 819.512 58.3753 787.15 57.97C742.622 22.3621 687.787 2.08265 630.805 0.149312C573.823 -1.78402 517.739 14.7321 470.9 47.24C433.472 28.0018 391.983 18.0032 349.9 18.08C224.28 18.08 119.61 105.08 96.13 220.46L1022.19 212.56Z" fill="#00CCD8"/>
<path id="Vector_4" opacity="0.1" d="M1042.07 309.33C1042.1 278.039 1036.11 247.035 1024.45 218L44.59 320.86C34.4898 339.137 26.7608 358.628 21.59 378.86L325.02 424.09L14.67 457.09C24.05 587.7 136.03 690.79 272.81 690.79C341.66 690.79 404.22 664.65 450.58 622.03C497.08 665.46 560.25 692.17 629.83 692.17C733.1 692.17 822.22 633.38 863.72 548.37C946.98 521.94 1011.66 455.59 1033.8 372.58L650.07 313.06H1042.07C1042.05 311.82 1042.07 310.58 1042.07 309.33Z" fill="#00CCD8"/>
<path id="Vector_5" d="M516.9 697.41C516.9 697.41 515.9 602.17 610.16 563.48L631.99 521.81L654.81 466.25L703.42 455.34L717.31 396.8C717.31 396.8 770.89 377.95 805.61 384.9L812.59 396.8C812.59 396.8 901.89 395.8 905.85 444.42C905.85 444.42 914.78 489.07 927.68 497.01C927.68 497.01 949.51 492.01 971.33 523.79L995.14 605.15C995.14 605.15 1057.59 663.7 1038.76 717.26C1038.76 717.26 1012.96 753.96 882 729.16C882 729.16 742.11 771.82 667.71 713.29C667.71 713.29 543.69 737.1 516.9 697.41Z" fill="#A8A8A8"/>
<path id="Vector_6" opacity="0.1" d="M651.83 608.12C651.83 608.12 671.67 571.42 669.69 551.57C669.69 551.57 690.52 513.87 706.4 516.85" stroke="black" stroke-miterlimit="10"/>
<path id="Vector_7" opacity="0.1" d="M760.96 503.95C760.96 503.95 815.53 484.11 818.51 468.23" stroke="black" stroke-miterlimit="10"/>
<path id="Vector_8" opacity="0.1" d="M780.81 549.59C780.81 549.59 838.35 523.79 838.35 516.85H867.12C867.12 516.85 908.79 571.42 903.83 595.23" stroke="black" stroke-miterlimit="10"/>
<path id="Vector_9" opacity="0.1" d="M848.27 589.27C848.27 589.27 792.71 585.27 772.87 601.18C753.03 617.09 717.31 624.99 717.31 624.99C717.31 624.99 696.48 669.63 688.59 677.57C680.7 685.51 667.76 713.29 667.76 713.29" stroke="black" stroke-miterlimit="10"/>
<path id="Vector_10" opacity="0.1" d="M848.27 641.86C848.27 641.86 854.27 662.69 862.16 674.6C870.05 686.51 882 729.16 882 729.16" stroke="black" stroke-miterlimit="10"/>
<path id="Vector_11" opacity="0.1" d="M941.53 702.37C941.53 702.37 954.12 737.37 965.19 737.75" stroke="black" stroke-miterlimit="10"/>
<path id="Vector_12" opacity="0.1" d="M859.04 551.98C859.04 551.98 891.76 560.82 905.43 582.24C919.1 603.66 960.93 623.1 960.93 623.1" stroke="black" stroke-miterlimit="10"/>
<path id="Vector_13" opacity="0.1" d="M873.07 446.41C873.07 446.41 873.07 492.05 885.97 492.05C898.87 492.05 927.64 497.05 927.64 497.05" stroke="black" stroke-miterlimit="10"/>
<path id="Vector_14" opacity="0.1" d="M809.9 392.25C809.9 392.25 806.6 471.08 789.74 491.48" stroke="black" stroke-miterlimit="10"/>
</g>
<g id="drink">
<path id="Vector_15" d="M633.51 296.88V649.51C633.51 668.606 625.924 686.919 612.422 700.422C598.919 713.924 580.606 721.51 561.51 721.51H419.92C395.951 721.497 372.97 711.963 356.03 695.007C339.09 678.05 329.579 655.059 329.59 631.09V284.22C329.57 268.708 335.68 253.817 346.59 242.79C350.205 239.127 354.279 235.947 358.71 233.33C367.771 227.998 378.097 225.194 388.61 225.21H561.83C580.839 225.21 599.07 232.761 612.512 246.201C625.954 259.641 633.507 277.871 633.51 296.88Z" fill="#535461"/>
<path id="Vector_16" opacity="0.1" d="M633.51 400.58V488.31C613.67 479.91 590.58 477.84 577.25 502.83C550.44 553.09 503.91 483.83 503.91 483.83C503.91 483.83 485.67 460 438.01 487.56C405.01 506.62 356.39 498.24 329.54 491.26V383.43C352.85 399.57 392.54 422.54 410.84 406.78C427.16 392.72 457.17 404.49 478.13 415.84C480.483 417.1 483.097 417.797 485.765 417.875C488.434 417.954 491.084 417.412 493.507 416.292C495.93 415.173 498.061 413.506 499.73 411.423C501.4 409.341 502.564 406.899 503.13 404.29C506.13 390.37 513.53 377.8 531.43 387.05C554.76 399.08 604.59 400.7 633.51 400.58Z" fill="black"/>
<path id="Vector_17" d="M633.51 398.58V486.31C613.67 477.91 590.58 475.84 577.25 500.83C550.44 551.09 503.91 481.83 503.91 481.83C503.91 481.83 485.67 458 438.01 485.56C405.01 504.62 356.39 496.24 329.54 489.26V381.43C352.85 397.57 392.54 420.54 410.84 404.78C427.16 390.72 457.17 402.49 478.13 413.84C480.483 415.1 483.097 415.797 485.765 415.875C488.434 415.954 491.084 415.412 493.507 414.292C495.93 413.173 498.061 411.506 499.73 409.423C501.4 407.341 502.564 404.899 503.13 402.29C506.13 388.37 513.53 375.8 531.43 385.05C554.76 397.08 604.59 398.7 633.51 398.58Z" fill="#00CCD8"/>
<path id="Vector_18" opacity="0.1" d="M360.87 631.09V284.22C360.87 268.572 367.086 253.565 378.151 242.501C389.215 231.436 404.222 225.22 419.87 225.22H388.59C372.942 225.22 357.935 231.436 346.871 242.501C335.806 253.565 329.59 268.572 329.59 284.22V631.09C329.59 642.96 331.928 654.713 336.471 665.679C341.013 676.645 347.672 686.609 356.065 695.002C364.459 703.395 374.423 710.052 385.39 714.593C396.357 719.135 408.11 721.471 419.98 721.47H451.31C439.436 721.478 427.677 719.146 416.705 714.607C405.732 710.069 395.762 703.413 387.363 695.02C378.964 686.626 372.301 676.66 367.755 665.691C363.21 654.721 360.87 642.964 360.87 631.09Z" fill="white"/>
<path id="Vector_19" opacity="0.1" d="M608.75 242.7L608.68 244.64C608.68 244.64 565.8 261.64 478.68 263.89C391.56 266.14 346.68 244.64 346.68 244.64L346.53 242.79C350.145 239.127 354.219 235.947 358.65 233.33C374.65 240.81 408.59 249.49 478.82 247.69C541.68 246.08 574.51 238.46 591.52 231.63C597.765 234.474 603.568 238.202 608.75 242.7Z" fill="black"/>
<path id="Vector_20" d="M474.6 255.68C541.465 255.68 595.67 241.886 595.67 224.87C595.67 207.854 541.465 194.06 474.6 194.06C407.735 194.06 353.53 207.854 353.53 224.87C353.53 241.886 407.735 255.68 474.6 255.68Z" fill="#C8CBD8"/>
<path id="Vector_21" d="M503.26 218.26C503.26 218.26 572.26 208.77 559.38 231.94C546.5 255.11 503.26 236.7 503.26 236.7V218.26Z" fill="#535461"/>
<path id="Vector_22" opacity="0.1" d="M475.59 204.44C536.43 202.18 587.24 213.17 596.4 229.59C597.166 228.005 597.543 226.26 597.5 224.5C596.78 205.37 542.04 191.87 475.22 194.35C408.4 196.83 354.8 214.35 355.51 233.49C355.596 235.25 356.1 236.964 356.98 238.49C364.92 221.43 414.78 206.7 475.59 204.44Z" fill="black"/>
<path id="Vector_23" d="M344.94 222.7C344.94 222.7 350.8 184.17 472.54 186.96C472.54 186.96 587.54 179.42 609.61 218.23L596.05 234.6C596.05 234.6 602.94 193.41 473.38 202.07C343.82 210.73 360.13 232.5 360.13 232.5L357.78 236.7L344.94 222.7Z" fill="#DDE1EB"/>
<path id="Vector_24" d="M346.68 242.64C346.68 242.64 391.57 264.12 478.68 261.89C565.79 259.66 608.68 242.64 608.68 242.64L609.61 218.26C609.052 218.664 608.545 219.134 608.1 219.66C602.96 225.25 579.16 243.12 478.82 245.66C359.18 248.74 344.94 221.37 344.94 221.37L346.68 242.64Z" fill="#E8EAF1"/>
</g>
<g id="dude">
<path id="Vector_25" d="M492.37 212.1C482.04 212.1 473.67 219.15 473.67 227.85C473.67 236.55 482.04 243.61 492.37 243.61C502.7 243.61 511.08 236.55 511.08 227.85C511.08 219.15 502.71 212.1 492.37 212.1ZM492.37 237.02C486.37 237.02 481.48 232.92 481.48 227.85C481.48 222.78 486.36 218.68 492.37 218.68C498.38 218.68 503.26 222.79 503.26 227.85C503.26 232.91 498.39 237.02 492.37 237.02Z" fill="#E8EAF1"/>
<path id="Vector_26" d="M772.439 162.207C772.109 162.087 762.499 157.137 760.349 154.547L750.399 142.477C750.399 142.477 720.029 140.827 731.649 131.947C743.269 123.067 750.649 131.947 750.649 131.947L756.549 136.857L771.799 146.967L776.799 142.097L780.199 153.947L772.439 162.207Z" fill="#FBBEBE"/>
<path id="Vector_27" d="M865.38 113.41L858.69 107.48L858.7 115.19L859.18 118.24L865.38 113.41Z" fill="#7B7BDB"/>
<path id="Vector_28" opacity="0.1" d="M865.38 113.41L858.69 107.48L858.7 115.19L859.18 118.24L865.38 113.41Z" fill="black"/>
<path id="Vector_29" d="M825.44 131.33L847.16 135.33C847.16 135.33 870.81 131.07 863.82 123.63C860.76 120.37 859.26 113.8 858.53 107.45C858.24 104.86 858.07 102.31 857.99 100.03C857.8 95.11 857.99 91.46 857.99 91.46C857.99 91.46 828.52 93.02 833.38 101.99C834.269 103.808 834.642 105.835 834.46 107.85C833.98 117.7 825.44 131.33 825.44 131.33Z" fill="#FBBEBE"/>
<path id="Vector_30" opacity="0.1" d="M833.35 102.02C834.239 103.838 834.612 105.865 834.43 107.88C836.598 108.629 838.876 109.011 841.17 109.01C844.492 109.007 847.762 108.189 850.694 106.629C853.626 105.068 856.131 102.813 857.99 100.06C857.8 95.14 857.99 91.49 857.99 91.49C857.99 91.49 828.49 93.05 833.35 102.02Z" fill="black"/>
<path id="Vector_31" opacity="0.1" d="M821.44 203.27C820.105 204.206 818.974 205.402 818.114 206.788C817.255 208.173 816.685 209.718 816.44 211.33C816.44 211.33 811.58 209.87 809.77 209.98C807.96 210.09 792.94 201.43 792.94 201.43C792.94 201.43 769.56 191.52 769.33 188.59C769.1 185.66 760.33 181.65 760.33 181.65L767.33 178.43L806.98 196.33L821.44 203.27Z" fill="black"/>
<path id="Vector_32" d="M821.78 202.59C820.446 203.527 819.316 204.724 818.457 206.109C817.597 207.494 817.027 209.039 816.78 210.65C816.78 210.65 811.93 209.19 810.12 209.31C808.31 209.43 793.29 200.75 793.29 200.75C793.29 200.75 769.91 190.85 769.68 187.91C769.45 184.97 760.68 180.98 760.68 180.98L767.68 177.75L807.24 195.7L821.78 202.59Z" fill="#444053"/>
<path id="Vector_33" d="M808.04 199.55C808.636 199.55 809.12 199.066 809.12 198.47C809.12 197.874 808.636 197.39 808.04 197.39C807.444 197.39 806.96 197.874 806.96 198.47C806.96 199.066 807.444 199.55 808.04 199.55Z" fill="#DDE1EB"/>
<path id="Vector_34" d="M806.67 202.41C807.266 202.41 807.75 201.926 807.75 201.33C807.75 200.734 807.266 200.25 806.67 200.25C806.074 200.25 805.59 200.734 805.59 201.33C805.59 201.926 806.074 202.41 806.67 202.41Z" fill="#DDE1EB"/>
<path id="Vector_35" d="M805.05 205.51C805.646 205.51 806.13 205.026 806.13 204.43C806.13 203.834 805.646 203.35 805.05 203.35C804.454 203.35 803.97 203.834 803.97 204.43C803.97 205.026 804.454 205.51 805.05 205.51Z" fill="#DDE1EB"/>
<path id="Vector_36" opacity="0.1" d="M867.8 88.61C867.917 89.669 867.647 90.7346 867.04 91.61C866.84 91.87 866.59 92.09 866.4 92.36C865.58 93.52 866.1 95.11 866.59 96.43C867.08 97.75 867.46 99.43 866.49 100.43C865.38 101.61 863.39 101.06 861.89 101.66C861.448 101.842 861.054 102.122 860.737 102.479C860.42 102.836 860.188 103.26 860.06 103.72C859.94 104.15 859.92 104.61 859.78 105.03C859.591 105.542 859.242 105.98 858.784 106.277C858.326 106.574 857.785 106.716 857.24 106.68C855.69 106.54 854.63 104.92 854.47 103.37C854.445 101.81 854.64 100.255 855.05 98.75C855.249 97.9942 855.294 97.2059 855.18 96.4325C855.067 95.6591 854.798 94.9167 854.39 94.25C854.238 94.0207 854.041 93.8251 853.811 93.6754C853.58 93.5257 853.321 93.4251 853.05 93.38C852.68 93.373 852.314 93.4525 851.981 93.6123C851.648 93.772 851.356 94.0075 851.13 94.3C850.69 94.8896 850.195 95.4354 849.65 95.93C848.65 96.66 847.29 96.71 846.26 97.4C845.54 97.88 844.93 98.68 844.07 98.66C843.713 98.6201 843.378 98.4708 843.109 98.2327C842.841 97.9946 842.652 97.6793 842.57 97.33C842.405 96.6296 842.405 95.9004 842.57 95.2C842.638 94.9039 842.638 94.5961 842.57 94.3C842.489 94.0723 842.352 93.8692 842.17 93.71C841.26 92.84 839.91 92.55 839.02 91.65C838.42 91.04 838.09 90.19 837.47 89.58C836.56 88.8697 835.488 88.3957 834.35 88.2C831.553 87.3925 828.961 85.9944 826.75 84.1C826.169 83.6414 825.674 83.0826 825.29 82.45C824.93 81.7468 824.739 80.9698 824.73 80.18C824.67 78.6232 825.04 77.08 825.8 75.72C825.951 75.3968 826.19 75.123 826.49 74.93C826.858 74.7825 827.258 74.7342 827.65 74.79C836.92 75.36 846.22 75.94 855.31 77.79C861 79.02 867.59 82 867.8 88.61Z" fill="black"/>
<path id="Vector_37" d="M868.14 88.27C868.252 89.3286 867.982 90.3924 867.38 91.27C867.18 91.53 866.93 91.75 866.73 92.02C865.92 93.18 866.44 94.77 866.93 96.1C867.42 97.43 867.8 99.1 866.83 100.1C865.72 101.28 863.73 100.73 862.22 101.34C861.779 101.518 861.385 101.796 861.069 102.151C860.754 102.507 860.525 102.931 860.4 103.39C860.28 103.82 860.26 104.28 860.11 104.7C859.927 105.214 859.581 105.654 859.124 105.952C858.667 106.251 858.124 106.39 857.58 106.35C856.02 106.21 854.97 104.59 854.81 103.04C854.785 101.48 854.98 99.9249 855.39 98.42C855.587 97.6639 855.63 96.876 855.517 96.103C855.404 95.3299 855.136 94.5876 854.73 93.92C854.577 93.6895 854.379 93.4933 854.146 93.3435C853.914 93.1938 853.653 93.0938 853.38 93.05C853.012 93.0445 852.648 93.1248 852.316 93.2845C851.985 93.4442 851.695 93.6789 851.47 93.97C851.026 94.5595 850.528 95.1053 849.98 95.6C848.98 96.33 847.63 96.38 846.6 97.07C845.88 97.55 845.27 98.35 844.41 98.33C844.053 98.2915 843.717 98.1427 843.448 97.9044C843.179 97.6661 842.991 97.35 842.91 97C842.75 96.3024 842.75 95.5776 842.91 94.88C842.985 94.5813 842.985 94.2687 842.91 93.97C842.827 93.7437 842.689 93.5411 842.51 93.38C841.6 92.51 840.24 92.22 839.36 91.32C838.75 90.71 838.43 89.86 837.81 89.25C836.898 88.5425 835.827 88.0688 834.69 87.87C831.892 87.0645 829.3 85.6662 827.09 83.77C826.509 83.3114 826.014 82.7526 825.63 82.12C825.269 81.4171 825.078 80.6399 825.07 79.85C825.01 78.2932 825.38 76.7499 826.14 75.39C826.289 75.068 826.529 74.7968 826.83 74.61C827.195 74.4537 827.597 74.4018 827.99 74.46C837.26 75.03 846.56 75.61 855.65 77.46C861.34 78.7 867.88 81.7 868.14 88.27Z" fill="#585268"/>
<g id="Group" opacity="0.1">
<path id="Vector_38" opacity="0.1" d="M823.36 73.92L821.59 76.7C821.59 76.7 807.18 80.45 807.77 81.46C808.36 82.47 809.38 80.78 811.41 83.23C813.44 85.68 820.65 89.83 824.21 88.72C827.77 87.61 841.21 83.45 841.11 82.18C841.01 80.91 823.36 73.92 823.36 73.92Z" fill="black"/>
<path id="Vector_39" opacity="0.1" d="M848.06 56.57C843.41 55.74 828.06 54.57 821.6 73.33V76.7L840.21 82.7C840.21 82.7 864.69 89.18 866.71 82.7C867.291 80.732 867.59 78.6918 867.6 76.64C867.689 73.5043 867.043 70.3914 865.713 67.5505C864.382 64.7095 862.405 62.2196 859.94 60.28C857.353 58.221 854.183 57.0311 850.88 56.88C849.934 56.8467 848.991 56.7431 848.06 56.57Z" fill="black"/>
</g>
<path id="Vector_40" opacity="0.1" d="M848.98 57.72C849.538 57.72 849.99 57.2678 849.99 56.71C849.99 56.1522 849.538 55.7 848.98 55.7C848.422 55.7 847.97 56.1522 847.97 56.71C847.97 57.2678 848.422 57.72 848.98 57.72Z" fill="black"/>
<path id="Vector_41" d="M848.98 57.38C849.538 57.38 849.99 56.9278 849.99 56.37C849.99 55.8122 849.538 55.36 848.98 55.36C848.422 55.36 847.97 55.8122 847.97 56.37C847.97 56.9278 848.422 57.38 848.98 57.38Z" fill="#65617D"/>
<path id="Vector_42" opacity="0.1" d="M847.97 56.37C847.97 56.37 843.23 57.37 843.12 57.7L847.97 56.37Z" fill="black"/>
<path id="Vector_43" opacity="0.1" d="M849.99 56.37C849.99 56.37 852.99 57.68 852.99 58.25L849.99 56.37Z" fill="black"/>
<path id="Vector_44" opacity="0.1" d="M848.98 57.38C848.98 57.38 849.22 59.32 848.71 59.66L848.98 57.38Z" fill="black"/>
<path id="Vector_45" d="M768.37 148.19L769.03 152.13L406.4 212.88L405.97 210.33C405.936 209.929 406.061 209.531 406.317 209.221C406.573 208.911 406.94 208.713 407.34 208.67L768.37 148.19Z" fill="#535461"/>
<path id="Vector_46" opacity="0.1" d="M738.3 153.22L738.26 157.29L733.62 158.06L732.96 154.12L738.3 153.22Z" fill="black"/>
<path id="Vector_47" opacity="0.1" d="M749.21 151.4L749.16 155.46L744.53 156.24L743.87 152.29L749.21 151.4Z" fill="black"/>
<path id="Vector_48" opacity="0.1" d="M760.12 149.57L760.07 153.63L755.43 154.41L754.77 150.47L760.12 149.57Z" fill="black"/>
<path id="Vector_49" opacity="0.1" d="M768.367 148.191L765.684 148.64L766.345 152.585L769.028 152.136L768.367 148.191Z" fill="black"/>
<path id="Vector_50" opacity="0.1" d="M774.23 165.78C773.9 165.66 764.29 160.71 762.14 158.12L752.19 146.05C752.19 146.05 721.82 144.4 733.44 135.52C745.06 126.64 752.44 135.52 752.44 135.52L758.34 140.43L773.59 150.54L778.59 145.67L781.99 157.52L774.23 165.78Z" fill="black"/>
<path id="Vector_51" d="M604.47 273.26C604.47 273.26 619.86 297.51 626.29 297.05C632.72 296.59 634.54 302.91 634.54 302.91C634.54 302.91 642.23 312.72 649.54 312.04C650.96 311.9 652.41 310.87 653.83 309.3C657.97 304.69 661.83 295.44 663.76 290.3C664.6 288.08 665.09 286.62 665.09 286.62C665.09 286.62 645.76 272.42 640.68 275.03C639.799 275.463 638.853 275.75 637.88 275.88C632.63 276.69 625.67 274.48 625.67 274.48L617.86 268.48C616.211 267.185 614.219 266.399 612.13 266.22C611.306 266.149 610.476 266.207 609.67 266.39C604.96 267.54 604.47 273.26 604.47 273.26Z" fill="#B07473"/>
<path id="Vector_52" opacity="0.1" d="M604.47 273.26C604.47 273.26 619.86 297.51 626.29 297.05C632.72 296.59 634.54 302.91 634.54 302.91C634.54 302.91 642.23 312.72 649.54 312.04C650.96 311.9 652.41 310.87 653.83 309.3C650.13 308.07 643.1 305.3 641 301.04C638.12 295.23 635.57 290.72 631.28 291.04C626.99 291.36 622.76 290.83 621.85 289.42C620.94 288.01 611.28 277.01 611.28 277.01C611.28 277.01 610.72 269.86 609.67 266.36C604.96 267.54 604.47 273.26 604.47 273.26Z" fill="black"/>
<path id="Vector_53" d="M772.19 400.7C776.03 405.1 801.65 399.98 802.55 397.83C803.45 395.68 806.38 394.56 806.38 394.56C806.38 394.56 812.94 396.69 815.75 392.06C816.631 390.497 816.982 388.69 816.75 386.91C816.497 384.727 815.846 382.609 814.83 380.66L812.21 369L811.21 364.52C811.21 364.52 786.84 372.68 786.72 375.62C786.586 376.691 786.21 377.717 785.62 378.62C784.574 380.347 783.358 381.965 781.99 383.45L773.99 389.82C773.135 390.842 772.413 391.967 771.84 393.17C770.78 395.45 770.14 398.38 772.19 400.7Z" fill="#B07473"/>
<path id="Vector_54" opacity="0.1" d="M772.19 400.7C776.03 405.1 801.65 399.98 802.55 397.83C803.45 395.68 806.38 394.56 806.38 394.56C806.38 394.56 812.94 396.69 815.75 392.06C816.631 390.497 816.982 388.69 816.75 386.91C814.24 388.47 810.01 390.51 807.75 388.34C807.75 388.34 805.04 387.45 801.75 394.22C801.75 394.22 800.12 397.84 796.75 397.22C794.82 396.83 792.816 397.09 791.05 397.96C791.05 397.96 781.51 398.43 779.98 396.4C779.084 395.147 777.844 394.179 776.411 393.613C774.977 393.047 773.411 392.907 771.9 393.21C770.78 395.45 770.14 398.38 772.19 400.7Z" fill="black"/>
<path id="Vector_55" d="M841.14 108.33C852.362 108.33 861.46 99.2324 861.46 88.01C861.46 76.7876 852.362 67.69 841.14 67.69C829.918 67.69 820.82 76.7876 820.82 88.01C820.82 99.2324 829.918 108.33 841.14 108.33Z" fill="#FBBEBE"/>
<path id="Vector_56" opacity="0.1" d="M785.59 378.7L785.91 379.04C790.32 383.55 805.78 376.65 809.84 372.69C810.883 371.662 811.686 370.415 812.19 369.04L811.19 364.56C811.19 364.56 786.82 372.72 786.7 375.66C786.569 376.745 786.189 377.786 785.59 378.7Z" fill="black"/>
<path id="Vector_57" d="M637.21 274.8C637.21 274.8 665.8 291.24 667.38 291.24C668.96 291.24 673.23 279.04 673.23 279.04C673.23 279.04 673.23 273.62 675.48 271.81C677.73 270 681.79 261.53 681.79 261.53C681.79 261.53 682.24 257.69 685.61 251.48C688.98 245.27 695.86 231.7 695.86 231.7L696.76 226.85L699.13 225.49V223.49L701.13 221.34C704.41 224.34 720.67 224.34 720.67 224.34C725.3 225.8 764.67 230.83 764.67 230.83C768.4 234.89 764.98 292.7 765.88 295.18C766.78 297.66 767.14 303.64 767.14 303.64L771.68 324.07C771.68 324.07 778.61 355.67 780.08 358.07C781.039 359.852 781.618 361.813 781.78 363.83C781.78 363.83 781.46 373.83 785.87 378.39C790.28 382.95 805.74 375.99 809.8 372.03C813.86 368.07 812.72 362.32 812.72 362.32C812.72 362.32 808.09 364.13 809.65 350.58C811.21 337.03 801.65 314.8 801.65 314.8C803.11 309.38 796.55 303.18 796.55 303.18C796.55 303.18 796.32 299.34 794.85 297.31C793.38 295.28 794.85 285.8 794.85 285.8C794.85 285.8 795.95 269.43 801.25 260.05C806.55 250.67 802.36 249.1 805.74 245.59C809.12 242.08 809.59 232.11 809.59 232.11C809.59 232.11 815.9 220.7 815.32 216.64C814.74 212.58 817.32 205.64 817.32 205.64L769.08 177.03L754.59 183.75C738.11 182.19 694.65 190.16 694.65 190.16C681.65 192.32 678.97 194.58 678.52 198.08C678.07 201.58 669.4 216.95 669.4 216.95L656.79 239.77C656.79 239.77 647.33 259.88 646.79 262.82C646.25 265.76 637.21 274.8 637.21 274.8Z" fill="#65617D"/>
<path id="Vector_58" opacity="0.1" d="M800.85 230.7C800.85 230.7 796.43 226.52 791.25 226.53C786.07 226.54 774.76 222.26 774.76 222.26C774.76 222.26 786.96 228.57 789.76 228.57C792.56 228.57 800.85 230.7 800.85 230.7Z" fill="black"/>
<path id="Vector_59" opacity="0.1" d="M799.07 246.12C798.73 245.79 786.3 241.06 786.41 238.58L799.07 246.12Z" fill="black"/>
<path id="Vector_60" opacity="0.1" d="M757.28 182.52C757.28 182.52 759.34 214.91 760.67 217.61C760.67 217.61 755.33 188.18 757.28 182.52Z" fill="black"/>
<path id="Vector_61" opacity="0.1" d="M689.27 202.77C689.27 202.77 695.27 221.66 697.54 223.23C697.59 223.23 684.88 209.29 689.27 202.77Z" fill="black"/>
<path id="Vector_62" opacity="0.1" d="M806.14 215.63C805.992 216.81 805.768 217.979 805.47 219.13L786.37 210.7C786.37 210.7 783.66 206.75 781.97 206.19C780.28 205.63 778.97 200.68 779.97 200.05C781.155 198.869 782.236 197.587 783.2 196.22L786.4 197.27L784.48 201C784.48 201 779.86 202.77 782.79 204.2C784.822 205.375 786.537 207.025 787.79 209.01L806.14 215.63Z" fill="black"/>
<path id="Vector_63" opacity="0.1" d="M867.1 91.31C867.147 90.9501 867.281 90.607 867.49 90.31C867.66 90.07 867.88 89.86 868.07 89.64C867.96 90.102 867.752 90.535 867.46 90.91C867.35 91.04 867.22 91.18 867.1 91.31Z" fill="black"/>
<path id="Vector_64" opacity="0.1" d="M861.15 101.7C861.28 101.241 861.512 100.817 861.829 100.46C862.146 100.103 862.539 99.8229 862.98 99.64C864.44 99.06 866.36 99.55 867.48 98.51C867.432 98.9778 867.232 99.4169 866.91 99.76C865.8 100.95 863.81 100.4 862.3 101C861.843 101.187 861.438 101.482 861.12 101.86L861.15 101.7Z" fill="black"/>
<path id="Vector_65" d="M840.59 117.48C840.59 117.48 850.86 116.67 852.45 118.93C854.04 121.19 865.45 113.41 865.45 113.41C865.45 113.41 868.06 119.25 866.59 121.51C865.751 122.606 865.352 123.975 865.47 125.35L867.73 125.79C867.546 126.118 867.45 126.489 867.45 126.865C867.45 127.241 867.546 127.612 867.73 127.94C868.41 128.84 870.73 130.31 870.67 131.44C870.61 132.57 872.37 135.72 872.6 136.85C872.83 137.98 879.51 154.34 874.1 162.7C868.69 171.06 867.1 172.87 866.44 172.99C865.78 173.11 861.65 174.12 861.65 174.12C861.65 174.12 858.65 180.68 856.85 181.36C855.05 182.04 852 185.09 852 185.09C852.132 185.352 852.201 185.642 852.201 185.935C852.201 186.228 852.132 186.518 852 186.78C851.242 187.885 850.184 188.749 848.95 189.27C847.71 189.84 828.16 176.65 828.16 176.65C828.16 176.65 822.16 201.72 820.07 202.52C817.98 203.32 808.59 197.7 808.59 197.7C808.59 197.7 800.46 200.31 796.51 197.49C792.56 194.67 774.59 186.49 773.91 183.41C773.23 180.33 768.49 180.82 767.58 177.77C766.67 174.72 768.25 174.84 769.04 173.14C769.83 171.44 769.49 172.14 770.16 169.53C770.83 166.92 772.52 158.69 776.58 157.33C779.406 156.191 781.971 154.492 784.123 152.335C786.275 150.178 787.968 147.608 789.1 144.78C791.35 138.45 794.82 119.25 794.82 119.25C794.82 119.25 812.19 108.35 819.19 107.55C826.19 106.75 833.04 109.61 833.72 110.28C834.4 110.95 834.4 110.28 832.83 115.7C831.79 119.32 840.59 117.48 840.59 117.48Z" fill="#7B7BDB"/>
<path id="Vector_66" d="M823.36 73.58L821.6 76.38C821.6 76.38 807.19 80.13 807.79 81.14C808.39 82.15 809.4 80.46 811.43 82.91C813.46 85.36 820.67 89.51 824.23 88.4C827.79 87.29 841.23 83.13 841.13 81.86C841.03 80.59 823.36 73.58 823.36 73.58Z" fill="#65617D"/>
<path id="Vector_67" d="M848.06 56.23C843.41 55.4 828.06 54.23 821.6 72.99V76.38L840.22 82.38C840.22 82.38 864.7 88.86 866.72 82.38C867.301 80.412 867.6 78.3718 867.61 76.32C867.7 73.1833 867.052 70.0693 865.72 67.228C864.388 64.3868 862.408 61.8975 859.94 59.96C857.355 57.8974 854.183 56.7071 850.88 56.56C849.933 56.5201 848.991 56.4098 848.06 56.23Z" fill="#65617D"/>
<path id="Vector_68" d="M857.41 81.07C858.343 81.07 859.1 80.3134 859.1 79.38C859.1 78.4466 858.343 77.69 857.41 77.69C856.477 77.69 855.72 78.4466 855.72 79.38C855.72 80.3134 856.477 81.07 857.41 81.07Z" fill="#DDE1EB"/>
<path id="Vector_69" d="M846.31 78.88C847.243 78.88 848 78.1234 848 77.19C848 76.2566 847.243 75.5 846.31 75.5C845.377 75.5 844.62 76.2566 844.62 77.19C844.62 78.1234 845.377 78.88 846.31 78.88Z" fill="#DDE1EB"/>
<path id="Vector_70" opacity="0.1" d="M840.22 82.37C840.22 82.37 825.22 80.53 821.6 76.37L840.22 82.37Z" fill="black"/>
<path id="Vector_71" opacity="0.1" d="M865.4 125.35C865.4 125.35 856.4 123.16 850.1 125.35C843.8 127.54 830.97 122.83 830.97 122.83" fill="black"/>
<path id="Vector_72" d="M799.23 116.86C799.23 116.86 790.1 125.34 788.29 127.37C786.113 130.266 784.084 133.27 782.21 136.37C782.21 136.37 779.21 138.81 779.21 141.88C779.21 144.95 775.94 144.96 775.94 144.96C775.94 144.96 780.36 158.39 778.45 161.67C776.54 164.95 789.05 153.18 791.45 152.56C793.85 151.94 793.02 147.14 794.45 141.86C795.88 136.58 799.23 116.86 799.23 116.86Z" fill="#7B7BDB"/>
<path id="Vector_73" opacity="0.1" d="M803.86 127.49C803.58 128.17 793.15 137.67 794.06 141.39C794.97 145.11 784.52 159.7 784.52 159.7" fill="black"/>
<path id="Vector_74" opacity="0.1" d="M701.15 221.31C704.43 224.31 720.69 224.31 720.69 224.31C725.32 225.77 764.69 230.8 764.69 230.8C764.69 230.8 750.11 222.8 742.15 222.25C734.19 221.7 701.15 221.31 701.15 221.31Z" fill="black"/>
<path id="Vector_75" d="M840.59 191.88L837.37 196.79L825.59 203.64C825.59 203.64 822.1 206.47 814.97 198.57C811.56 194.79 807.57 191 804.35 188.09C800.332 184.463 796.811 180.32 793.88 175.77C791.16 171.55 787.82 166.69 785.88 165.08C783.655 163.203 781.643 161.087 779.88 158.77C779.88 158.77 755.04 155.53 760.22 146.94C763.12 142.13 768.66 141.6 772.97 142.07C776.331 142.45 779.417 144.108 781.59 146.7C783.08 148.563 784.726 150.296 786.51 151.88C788.183 153.328 789.5 155.142 790.36 157.18L800 164.85C800 164.85 814.77 173.85 817.37 176.56C819.97 179.27 825.5 181.07 825.5 181.07L840.59 191.88Z" fill="#FBBEBE"/>
<path id="Vector_76" d="M849.59 183.7L847.92 188.96C847.92 188.96 840.13 196.81 839.11 197.71C838.09 198.61 824.11 183.96 823.51 180.01C822.91 176.06 826.44 176.5 827.56 175.15C828.68 173.8 831.51 171.08 831.85 169.5C832.19 167.92 835.17 164.41 836.49 163.39C837.81 162.37 838.61 160.45 839.4 158.2C840.19 155.95 842.67 156.27 843.46 156.2C844.25 156.13 853.37 137.89 860.37 139.35C867.37 140.81 870.73 142.7 870.73 142.7L849.59 183.7Z" fill="#7B7BDB"/>
<path id="Vector_77" d="M770.04 139.089L758.327 150.766L761.151 153.599L772.864 141.922L770.04 139.089Z" fill="#535461"/>
<path id="Vector_78" opacity="0.1" d="M758.54 150.65L761.34 153.51L761.19 153.66L758.37 150.82L758.54 150.65Z" fill="black"/>
<path id="Vector_79" opacity="0.1" d="M758.89 150.3L761.69 153.15L761.54 153.3L758.72 150.47L758.89 150.3Z" fill="black"/>
<path id="Vector_80" opacity="0.1" d="M759.24 149.95L762.04 152.8L761.89 152.95L759.07 150.12L759.24 149.95Z" fill="black"/>
<path id="Vector_81" opacity="0.1" d="M759.6 149.6L762.4 152.45L762.25 152.6L759.42 149.77L759.6 149.6Z" fill="black"/>
<path id="Vector_82" opacity="0.1" d="M759.95 149.25L762.75 152.1L762.6 152.25L759.78 149.42L759.95 149.25Z" fill="black"/>
<path id="Vector_83" opacity="0.1" d="M760.3 148.89L763.1 151.75L762.95 151.9L760.13 149.06L760.3 148.89Z" fill="black"/>
<path id="Vector_84" opacity="0.1" d="M760.65 148.54L763.46 151.4L763.3 151.55L760.48 148.71L760.65 148.54Z" fill="black"/>
<path id="Vector_85" opacity="0.1" d="M761.01 148.19L763.81 151.05L763.66 151.2L760.83 148.36L761.01 148.19Z" fill="black"/>
<path id="Vector_86" opacity="0.1" d="M761.36 147.84L764.16 150.7L764.01 150.84L761.19 148.01L761.36 147.84Z" fill="black"/>
<path id="Vector_87" opacity="0.1" d="M761.71 147.49L764.51 150.34L764.36 150.49L761.54 147.66L761.71 147.49Z" fill="black"/>
<path id="Vector_88" opacity="0.1" d="M762.06 147.14L764.86 149.99L764.71 150.14L761.89 147.31L762.06 147.14Z" fill="black"/>
<path id="Vector_89" opacity="0.1" d="M762.42 146.79L765.22 149.64L765.07 149.79L762.24 146.96L762.42 146.79Z" fill="black"/>
<path id="Vector_90" opacity="0.1" d="M762.77 146.43L765.57 149.29L765.42 149.44L762.6 146.61L762.77 146.43Z" fill="black"/>
<path id="Vector_91" opacity="0.1" d="M763.12 146.08L765.92 148.94L765.77 149.09L762.95 146.25L763.12 146.08Z" fill="black"/>
<path id="Vector_92" opacity="0.1" d="M763.47 145.73L766.27 148.59L766.12 148.74L763.3 145.9L763.47 145.73Z" fill="black"/>
<path id="Vector_93" opacity="0.1" d="M763.83 145.38L766.63 148.24L766.48 148.39L763.65 145.55L763.83 145.38Z" fill="black"/>
<path id="Vector_94" opacity="0.1" d="M764.18 145.03L766.98 147.88L766.83 148.03L764 145.2L764.18 145.03Z" fill="black"/>
<path id="Vector_95" opacity="0.1" d="M764.53 144.68L767.33 147.53L767.18 147.68L764.36 144.85L764.53 144.68Z" fill="black"/>
<path id="Vector_96" opacity="0.1" d="M764.88 144.33L767.68 147.18L767.53 147.33L764.71 144.5L764.88 144.33Z" fill="black"/>
<path id="Vector_97" opacity="0.1" d="M765.24 143.98L768.04 146.83L767.89 146.98L765.06 144.15L765.24 143.98Z" fill="black"/>
<path id="Vector_98" opacity="0.1" d="M765.59 143.62L768.39 146.48L768.24 146.63L765.41 143.8L765.59 143.62Z" fill="black"/>
<path id="Vector_99" opacity="0.1" d="M765.94 143.27L768.74 146.13L768.59 146.28L765.77 143.44L765.94 143.27Z" fill="black"/>
<path id="Vector_100" opacity="0.1" d="M766.29 142.92L769.09 145.78L768.94 145.93L766.12 143.09L766.29 142.92Z" fill="black"/>
<path id="Vector_101" opacity="0.1" d="M766.64 142.57L769.45 145.43L769.3 145.58L766.47 142.74L766.64 142.57Z" fill="black"/>
<path id="Vector_102" opacity="0.1" d="M767 142.22L769.8 145.07L769.65 145.22L766.83 142.39L767 142.22Z" fill="black"/>
<path id="Vector_103" opacity="0.1" d="M767.35 141.87L770.15 144.72L770 144.87L767.18 142.04L767.35 141.87Z" fill="black"/>
<path id="Vector_104" opacity="0.1" d="M767.7 141.52L770.5 144.37L770.35 144.52L767.53 141.69L767.7 141.52Z" fill="black"/>
<path id="Vector_105" opacity="0.1" d="M768.05 141.16L770.86 144.02L770.71 144.17L767.88 141.34L768.05 141.16Z" fill="black"/>
<path id="Vector_106" opacity="0.1" d="M768.41 140.81L771.21 143.67L771.06 143.82L768.24 140.99L768.41 140.81Z" fill="black"/>
<path id="Vector_107" opacity="0.1" d="M768.76 140.46L771.56 143.32L771.41 143.47L768.59 140.63L768.76 140.46Z" fill="black"/>
<path id="Vector_108" opacity="0.1" d="M769.11 140.11L771.91 142.97L771.76 143.12L768.94 140.28L769.11 140.11Z" fill="black"/>
<path id="Vector_109" opacity="0.1" d="M769.47 139.76L772.27 142.62L772.12 142.76L769.29 139.93L769.47 139.76Z" fill="black"/>
<path id="Vector_110" opacity="0.1" d="M769.82 139.41L772.62 142.26L772.47 142.41L769.64 139.58L769.82 139.41Z" fill="black"/>
<path id="Vector_111" opacity="0.1" d="M770.043 139.089L769.958 139.173L772.782 142.006L772.867 141.921L770.043 139.089Z" fill="black"/>
<path id="Vector_112" d="M487.12 213.56C487.12 213.56 421.24 174.21 407.88 201.81C394.52 229.41 468.66 235.44 477.38 233.3C477.38 233.3 470.69 218.96 487.12 213.56ZM465.68 225.56C460.29 226.88 414.49 223.15 422.74 206.09C430.99 189.03 471.74 213.35 471.74 213.35C461.59 216.7 465.68 225.53 465.68 225.53V225.56Z" fill="#E8EAF1"/>
</g>
<g id="drops">
<path id="Vector_113" d="M561.4 199.92C559.85 207.45 551.76 216.39 551.76 216.39C551.76 216.39 548.97 205.21 550.52 197.68C552.07 190.15 554.89 189.9 557.89 190.52C560.89 191.14 562.95 192.39 561.4 199.92Z" fill="#00CCD8"/>
<path id="Vector_114" d="M442.75 312.81C448.75 307.96 460.64 306.15 460.64 306.15C460.64 306.15 455.72 316.57 449.76 321.42C443.8 326.27 441.46 324.69 439.53 322.31C437.6 319.93 436.79 317.7 442.75 312.81Z" fill="#00CCD8"/>
<path id="Vector_115" opacity="0.2" d="M557.7 193.98C557.7 193.98 560.83 196.23 558.58 198.48L557.7 193.98Z" fill="white"/>
<path id="Vector_116" d="M542.04 157.7C540.49 165.23 532.39 174.17 532.39 174.17C532.39 174.17 529.61 162.98 531.16 155.46C532.71 147.94 535.52 147.68 538.53 148.3C541.54 148.92 543.59 150.17 542.04 157.7Z" fill="#00CCD8"/>
<path id="Vector_117" d="M499.93 162.52C503.6 169.28 503.16 181.33 503.16 181.33C503.16 181.33 493.83 174.57 490.16 167.82C486.49 161.07 488.49 159.06 491.16 157.6C493.83 156.14 496.27 155.77 499.93 162.52Z" fill="#00CCD8"/>
<path id="Vector_118" opacity="0.6" d="M504.29 110.35C507.96 117.11 507.53 129.16 507.53 129.16C507.53 129.16 498.19 122.4 494.53 115.65C490.87 108.9 492.86 106.89 495.53 105.43C498.2 103.97 500.59 103.6 504.29 110.35Z" fill="#00CCD8"/>
<path id="Vector_119" opacity="0.2" d="M497.64 108.19C497.64 108.19 501.48 107.9 501.2 111.07L497.64 108.19Z" fill="white"/>
<path id="Vector_120" d="M480.97 239.57C488.36 237.46 500.04 240.49 500.04 240.49C500.04 240.49 491.42 248.14 484.04 250.25C476.66 252.36 475.13 249.99 474.28 247.04C473.43 244.09 473.59 241.7 480.97 239.57Z" fill="#00CCD8"/>
<path id="Vector_121" opacity="0.6" d="M325.59 188.05C332.98 185.94 344.65 188.97 344.65 188.97C344.65 188.97 336.03 196.62 328.65 198.73C321.27 200.84 319.73 198.47 318.89 195.52C318.05 192.57 318.22 190.17 325.59 188.05Z" fill="#00CCD8"/>
<path id="Vector_122" opacity="0.2" d="M322.06 194.09C322.06 194.09 322.61 190.28 325.64 191.23L322.06 194.09Z" fill="white"/>
<path id="Vector_123" opacity="0.8" d="M292.29 220.4C299.68 218.29 311.35 221.31 311.35 221.31C311.35 221.31 302.73 228.96 295.35 231.08C287.97 233.2 286.44 230.82 285.6 227.87C284.76 224.92 284.9 222.52 292.29 220.4Z" fill="#00CCD8"/>
<path id="Vector_124" opacity="0.8" d="M407.76 124.37C415.15 122.25 426.82 125.28 426.82 125.28C426.82 125.28 418.21 132.93 410.82 135.05C403.43 137.17 401.91 134.78 401.06 131.84C400.21 128.9 400.37 126.48 407.76 124.37Z" fill="#00CCD8"/>
<path id="Vector_125" opacity="0.6" d="M287.17 310.15C286.88 302.47 292.6 291.85 292.6 291.85C292.6 291.85 297.98 302.05 298.27 309.73C298.56 317.41 295.89 318.32 292.83 318.44C289.77 318.56 287.46 317.83 287.17 310.15Z" fill="#00CCD8"/>
<path id="Vector_126" opacity="0.6" d="M165.2 310.15C164.91 302.47 170.64 291.85 170.64 291.85C170.64 291.85 176.01 302.05 176.3 309.73C176.59 317.41 173.92 318.32 170.86 318.44C167.8 318.56 165.49 317.83 165.2 310.15Z" fill="#00CCD8"/>
<path id="Vector_127" opacity="0.3" d="M209.91 259.9C215.59 254.73 227.4 252.27 227.4 252.27C227.4 252.27 223.07 262.95 217.4 268.12C211.73 273.29 209.29 271.83 207.23 269.56C205.17 267.29 204.22 265.07 209.91 259.9Z" fill="#00CCD8"/>
<path id="Vector_128" opacity="0.5" d="M512.53 265.54C518.53 260.69 530.41 258.88 530.41 258.88C530.41 258.88 525.5 269.3 519.59 274.16C513.68 279.02 511.29 277.42 509.35 275.04C507.41 272.66 506.59 270.39 512.53 265.54Z" fill="#00CCD8"/>
<path id="Vector_129" opacity="0.5" d="M383.3 305.01C387.3 298.41 397.84 292.64 397.84 292.64C397.84 292.64 396.78 304.11 392.84 310.71C388.9 317.31 386.15 316.61 383.52 315.03C380.89 313.45 379.36 311.6 383.3 305.01Z" fill="#00CCD8"/>
</g>
<g id="lady">
<path id="Vector_130" opacity="0.2" d="M292.19 315.03C292.19 315.03 288.61 313.59 290.26 310.87L292.19 315.03Z" fill="white"/>
<path id="Vector_131" opacity="0.2" d="M170.22 315.03C170.22 315.03 166.64 313.59 168.29 310.87L170.22 315.03Z" fill="white"/>
<path id="Vector_132" opacity="0.2" d="M209.4 266.88C209.4 266.88 208.2 263.22 211.34 262.73L209.4 266.88Z" fill="white"/>
<path id="Vector_133" d="M273.9 429.44C271.41 428.63 256.78 417.28 255.68 412.15C254.58 407.02 263.41 359.22 263.41 359.22C263.41 359.22 262.59 359.22 261.3 359.06V358.29L263.11 295.48C263.11 295.48 270.56 253.35 256.48 255.78C242.4 258.21 251.24 295.48 251.24 295.48C251.24 295.48 249.63 314.39 248.5 320.06C247.41 325.52 242.5 347.8 245.86 354.72C245.976 354.971 246.114 355.212 246.27 355.44C246.27 355.44 246.82 379.2 240.75 382.44C234.95 385.54 232.54 401.07 232.33 402.44L232.03 402.31C230.302 401.258 228.777 399.903 227.53 398.31C227.41 398.15 227.31 397.98 227.2 397.81C231.15 393.483 233.286 387.804 233.167 381.947C233.047 376.09 230.682 370.503 226.56 366.34C226.37 366.15 226.18 365.96 225.98 365.78C226.449 365.308 226.792 364.728 226.98 364.09C228.06 360.86 224.35 358.27 222.44 356.24C217.97 351.52 213.97 345.71 207.77 343.05C209.552 344.062 211.205 345.288 212.69 346.7C210.823 345.087 208.683 343.82 206.37 342.96C199.88 340.64 192.42 342.56 186.75 346.42C181.08 350.28 176.91 355.87 173.09 361.5L171.23 364.25C169.609 362.445 167.847 360.773 165.96 359.25C162.37 356.55 155.19 347.63 155.19 347.63C155.19 347.63 132.83 324.95 131.19 318.74C129.55 312.53 107.19 275.25 102.19 281.74C97.19 288.23 119.3 316.58 119.3 316.58C119.3 316.58 123.45 326.85 126.76 330.36C130.07 333.87 154.64 368.98 154.64 368.98L156.72 373.19L157.11 373.98C157.018 373.943 156.931 373.896 156.85 373.84V378.97L159.14 379.18C158.12 380.093 157.186 381.097 156.35 382.18C155.107 383.993 154.184 386.005 153.62 388.13C150 400.13 151.48 413.13 156.14 424.77C157.246 427.095 158.039 429.557 158.5 432.09C158.91 435.66 157.72 439.18 157.02 442.7C156.02 447.7 156.02 453.05 158.56 457.46C161.88 463.32 169.35 466.37 176.1 465.28C179.187 464.758 182.109 463.518 184.63 461.66C187.796 459.46 190.349 456.49 192.05 453.03C193.32 450.45 194.05 447.67 195.36 445.08C195.6 444.59 195.87 444.08 196.14 443.63C199 446.77 201.59 449.7 201.59 449.7C201.59 449.7 207.66 478.87 202.42 486.97C199.638 491.044 196.268 494.684 192.42 497.77C191.447 498.576 190.553 499.474 189.75 500.45C189.23 500.82 188.92 501.02 188.92 501.02C188.92 501.02 188.79 501.41 188.58 502.02C187.355 503.848 186.464 505.88 185.95 508.02C185.764 508.563 185.7 509.14 185.76 509.71C186.13 510.46 183.06 513.55 183.96 514.85C176.29 523.64 174.84 536.99 174.84 536.99L160.85 557.7C153.67 576.19 142.91 578.09 142.91 578.09C142.91 578.09 117.65 561.51 116.96 560.7C116.27 559.89 106.59 555.83 106.59 555.83C105.433 553.858 103.683 552.3 101.59 551.38C98.27 550.03 98 545.03 98 545.03C97.59 533.28 90.55 532.34 90.55 532.34C84.87 531.87 80.55 532.85 77.19 534.67L76.19 534.75C71.3 535.13 65.4 535.57 58.94 535.98C40.94 537.15 36.72 548.54 36.72 548.54C36.72 548.54 34.51 550.97 37.4 553.6C40.29 556.23 58.82 553.65 59.6 553.54C58.1907 553.702 56.7636 553.604 55.39 553.25C58.31 553.15 62.32 553.05 65.73 553.04H66.59C66.376 554.815 66.2725 556.602 66.28 558.39C66.28 561.77 75.81 563.93 75.81 563.93L104.81 589.18C104.81 589.18 123.03 597.18 134.63 608.62C146.23 620.06 156.44 610.24 156.44 610.24C168.71 607.24 204.02 565.45 204.05 565.41C204.05 566.69 204.79 607.31 206.22 615.47C206.294 615.893 206.419 616.306 206.59 616.7C208.25 620.21 206.03 629.8 205.07 633.85C204.459 637.234 204.228 640.675 204.38 644.11C204.38 644.11 191.08 693.7 192.18 698.03C193.28 702.36 185.01 722.61 185.01 722.61V739.48C185.01 739.48 185.53 739.48 186.45 739.42C186.257 739.684 186.083 739.961 185.93 740.25C185.895 740.307 185.864 740.367 185.84 740.43C185.84 740.43 194.67 742.32 200.6 741.78C206.53 741.24 216.75 746.27 216.75 746.27C216.75 746.27 220.2 747.86 230.83 748.54C241.46 749.22 241.46 743.94 241.46 743.94C240.24 736.76 223.46 734.36 222.93 734.3C221.58 733.46 220.3 732.55 219.27 731.77L219.04 731.6C219.12 731.447 219.184 731.286 219.23 731.12C221.03 723.96 211.09 720.85 211.09 720.85V719.1C217.58 715.85 218.82 693.57 218.82 693.57C218.82 693.57 228.49 666.03 229.82 661.44C231.15 656.85 229.82 649.95 229.82 649.95L230.82 644.02C230.82 644.02 232.89 639.96 232.89 639.15C233.164 637.087 233.974 635.132 235.24 633.48C236.76 631.72 233.58 627.54 233.58 627.54L236.34 620.54V612.84L242.83 584.84C242.83 584.84 249.59 552.32 247.26 541.7C244.93 531.08 250.02 525.62 250.02 525.62C249.53 525.87 249.02 526.08 248.6 526.26C249.246 524.795 249.804 523.292 250.27 521.76L264.78 523.53V523.73H270.02C270.02 523.73 268.36 503.73 268.36 495.65C268.36 487.57 273.89 458.65 273.89 458.65C273.89 458.65 276.38 430.25 273.9 429.44ZM209.44 405.7C209.44 405.81 209.44 405.92 209.44 406.03C209.44 406.82 209.36 407.64 209.31 408.47L209.02 408.91L208.49 408.47L207.82 409.47C207.703 408.836 207.746 408.182 207.943 407.568C208.14 406.954 208.486 406.398 208.95 405.95C209.107 405.854 209.271 405.771 209.44 405.7ZM257.73 499.27H258.05L257.53 500.59C257.59 500.19 257.66 499.75 257.73 499.31V499.27ZM204.73 738.27L202.73 737.78L203.83 737.6L204.83 738.25L204.96 738.33L204.73 738.27ZM224.95 735.43C224.29 735.09 223.63 734.71 222.95 734.31C223.18 734.43 224.03 734.86 224.93 735.44L224.95 735.43Z" fill="url(#paint0_linear)"/>
<path id="Vector_134" d="M262.56 479.09L249.9 512.07H252.97L241.07 521.56L262.56 524.24V479.09Z" fill="#F86D70"/>
<path id="Vector_135" opacity="0.1" d="M262.56 479.09L249.9 512.07L246.71 511.21L241.07 521.56L262.56 524.24V479.09Z" fill="black"/>
<path id="Vector_136" d="M242.71 500.19H262.56L269.84 440.25H242.71V500.19Z" fill="#F86D70"/>
<path id="Vector_137" opacity="0.1" d="M242.71 500.19H262.56L269.84 440.25H242.71V500.19Z" fill="black"/>
<path id="Vector_138" d="M203.95 454.45L208.22 453.72L218.07 452.05C218.07 452.05 247.64 445.39 253.77 444.86C257.467 444.375 261.073 443.347 264.47 441.81C266.07 441.12 267.08 440.59 267.08 440.59L256.43 421.14L239.91 408.89C239.91 408.89 229.46 406.67 225.03 400.59C224.048 399.279 223.409 397.744 223.169 396.124C222.93 394.503 223.099 392.849 223.66 391.31C226.36 382.94 207.56 399.31 207.56 399.31C207.56 399.31 207.74 403.23 207.56 408.23C207.56 409.23 207.47 410.23 207.4 411.28C207.4 411.97 207.29 412.66 207.23 413.36C206.77 418.36 205.82 423.43 203.97 426.48C199.42 433.93 203.95 454.45 203.95 454.45Z" fill="#714246"/>
<path id="Vector_139" opacity="0.1" d="M207.59 408.62H208.01C208.76 408.62 209.37 407.03 210.1 406.95C215.98 406.39 221.35 405.15 225.1 400.95C224.12 399.638 223.482 398.103 223.245 396.482C223.007 394.862 223.177 393.208 223.74 391.67C226.43 383.3 207.63 399.67 207.63 399.67C207.63 399.67 207.74 403.62 207.59 408.62Z" fill="black"/>
<path id="Vector_140" d="M184.65 384.91C184.65 387.921 185.244 390.903 186.397 393.684C187.55 396.466 189.24 398.993 191.371 401.12C193.501 403.248 196.031 404.935 198.814 406.085C201.597 407.234 204.579 407.824 207.59 407.82C208.335 407.824 209.079 407.787 209.82 407.71C214.232 407.276 218.423 405.571 221.885 402.802C225.347 400.033 227.931 396.318 229.322 392.109C230.714 387.9 230.854 383.377 229.725 379.09C228.597 374.803 226.248 370.935 222.964 367.957C219.68 364.979 215.602 363.018 211.226 362.312C206.849 361.606 202.361 362.186 198.308 363.981C194.254 365.776 190.809 368.709 188.39 372.424C185.971 376.139 184.682 380.477 184.68 384.91H184.65Z" fill="#714246"/>
<path id="Vector_141" opacity="0.1" d="M184.65 384.91C184.65 387.921 185.244 390.903 186.397 393.684C187.55 396.466 189.24 398.993 191.371 401.12C193.501 403.248 196.031 404.935 198.814 406.085C201.597 407.234 204.579 407.824 207.59 407.82C208.335 407.824 209.079 407.787 209.82 407.71C210.228 407.548 210.591 407.29 210.88 406.96C211.147 406.553 211.322 406.092 211.393 405.61C211.464 405.128 211.429 404.637 211.29 404.17C210.39 399.69 206.29 396.48 204.87 392.17C203.59 388.32 204.54 384.01 206.52 380.48C208.5 376.95 211.41 374.03 214.28 371.16C214.768 370.603 215.377 370.165 216.06 369.88C218.51 369.11 222.19 371.26 224.12 369.07C220.955 365.772 216.876 363.496 212.407 362.535C207.938 361.574 203.284 361.972 199.042 363.677C194.801 365.382 191.167 368.318 188.608 372.105C186.049 375.892 184.681 380.359 184.68 384.93L184.65 384.91Z" fill="black"/>
<path id="Vector_142" d="M215.23 369.46C214.545 369.742 213.935 370.18 213.45 370.74C210.58 373.6 207.67 376.52 205.69 380.05C203.71 383.58 202.76 387.9 204.04 391.75C205.5 396.08 209.56 399.29 210.46 403.75C210.599 404.217 210.634 404.708 210.563 405.19C210.492 405.672 210.317 406.133 210.05 406.54C209.27 407.49 207.83 407.54 206.84 408.27C206.25 408.79 205.826 409.472 205.621 410.232C205.417 410.991 205.441 411.794 205.69 412.54C206.209 414.023 206.915 415.435 207.79 416.74C209.93 420.52 210.79 425.45 208.52 429.13C207.437 430.636 206.148 431.983 204.69 433.13C202.281 435.279 200.05 437.62 198.02 440.13C196.271 442.215 194.778 444.501 193.57 446.94C192.35 449.49 191.57 452.23 190.37 454.78C187.52 460.78 181.9 465.49 175.37 466.57C168.84 467.65 161.65 464.63 158.44 458.85C156.02 454.5 155.99 449.18 156.95 444.3C157.63 440.82 158.78 437.3 158.39 433.83C157.947 431.334 157.181 428.907 156.11 426.61C151.61 415.16 150.18 402.26 153.67 390.46C154.216 388.373 155.108 386.392 156.31 384.6C157.576 383.029 158.974 381.571 160.49 380.24C165.26 375.58 168.77 369.82 172.49 364.24C176.21 358.66 180.21 353.19 185.68 349.38C191.15 345.57 198.33 343.7 204.59 345.98C211.14 348.37 215.18 354.48 219.72 359.39C221.57 361.39 225.15 363.94 224.11 367.13C222.64 371.7 218.1 368.56 215.23 369.46Z" fill="#453034"/>
<path id="Vector_143" opacity="0.1" d="M174.18 465.46C180.7 464.38 186.32 459.63 189.18 453.67C190.4 451.13 191.18 448.38 192.38 445.83C193.59 443.393 195.084 441.107 196.83 439.02C198.86 436.509 201.09 434.168 203.5 432.02C204.957 430.872 206.247 429.526 207.33 428.02C209.64 424.34 208.75 419.42 206.61 415.63C205.726 414.332 205.017 412.923 204.5 411.44C204.248 410.693 204.223 409.888 204.428 409.126C204.633 408.365 205.058 407.681 205.65 407.16C206.65 406.44 208.09 406.38 208.86 405.43C209.127 405.024 209.302 404.566 209.375 404.086C209.447 403.606 209.415 403.116 209.28 402.65C208.37 398.16 204.28 394.96 202.86 390.65C201.57 386.81 202.53 382.5 204.5 378.96C206.47 375.42 209.39 372.51 212.26 369.65C212.745 369.09 213.355 368.652 214.04 368.37C216.91 367.46 221.45 370.55 222.92 366.03C223.92 362.84 220.38 360.29 218.53 358.29C214.62 354.06 211.07 348.95 205.98 346.08C211.98 348.7 215.83 354.43 220.13 359.08C221.98 361.08 225.56 363.63 224.52 366.82C223.05 371.34 218.52 368.25 215.64 369.16C214.953 369.439 214.343 369.878 213.86 370.44C210.99 373.3 208.08 376.21 206.1 379.75C204.12 383.29 203.17 387.6 204.45 391.44C205.91 395.77 209.97 398.98 210.87 403.44C211.009 403.907 211.045 404.398 210.974 404.88C210.903 405.362 210.728 405.823 210.46 406.23C209.68 407.18 208.24 407.23 207.25 407.96C206.658 408.481 206.233 409.165 206.028 409.926C205.823 410.688 205.848 411.493 206.1 412.24C206.617 413.721 207.323 415.129 208.2 416.43C210.34 420.21 211.2 425.14 208.93 428.82C207.847 430.326 206.557 431.672 205.1 432.82C202.688 434.966 200.457 437.307 198.43 439.82C196.682 441.907 195.185 444.193 193.97 446.63C192.76 449.18 191.97 451.93 190.78 454.47C187.93 460.47 182.31 465.18 175.78 466.26C171.931 466.878 167.987 466.173 164.59 464.26C167.607 465.566 170.934 465.983 174.18 465.46Z" fill="black"/>
<path id="Vector_144" d="M198.49 732.83L202.49 735.47L203.1 735.88L203.22 735.96L207.95 739.09L219 740.95L228.73 740.28C228.73 740.28 231.52 734.43 227.13 734.56C225.727 734.484 224.359 734.091 223.13 733.41L222.53 733.1C221.9 732.76 221.26 732.38 220.63 731.99C219.33 731.17 218.09 730.27 217.1 729.5C215.64 728.38 214.67 727.5 214.67 727.5L198.49 732.83Z" fill="#714246"/>
<path id="Vector_145" opacity="0.1" d="M202.49 735.47L203.1 735.88L203.22 735.96L207.95 739.09L219 740.95L228.73 740.28C228.73 740.28 231.52 734.43 227.13 734.56C225.727 734.484 224.359 734.091 223.13 733.41C223.82 733.829 224.345 734.471 224.62 735.23C224.79 736.72 217.42 739.43 217.42 739.43L207.01 736.7C207.01 736.7 205.25 736.19 202.82 735.57L202.59 735.51L202.49 735.47Z" fill="black"/>
<path id="Vector_146" d="M184.77 738.02C184.77 738.02 193.3 739.88 199.02 739.35C204.74 738.82 214.59 743.78 214.59 743.78C214.59 743.78 217.92 745.35 228.17 746.01C238.42 746.67 238.43 741.48 238.43 741.48C237.25 734.4 221.06 732.04 220.55 731.97C220.76 732.08 221.55 732.51 222.45 733.08C223.6 733.83 224.84 734.81 224.94 735.6C225.11 737.1 217.74 739.81 217.74 739.81L207.35 737.07C207.35 737.07 205.59 736.56 203.16 735.94L202.93 735.88C199.351 734.897 195.714 734.139 192.04 733.61C187.56 733.13 185.27 736.94 184.8 737.82L184.77 738.02Z" fill="#B07473"/>
<path id="Vector_147" d="M50.51 550.08L55.04 553.54C55.04 553.54 56.35 553.48 58.31 553.42H58.94C61.76 553.32 65.63 553.21 68.94 553.21C71.0697 553.12 73.2031 553.237 75.31 553.56C77.57 554.36 81.56 540.65 81.56 540.65L77.02 539.58L75.52 539.23L74.52 538.98L70.82 538.11L59.59 539.36L51.73 544.42L50.51 550.08Z" fill="#714246"/>
<path id="Vector_148" opacity="0.1" d="M50.51 550.08L55.04 553.54C55.04 553.54 56.35 553.48 58.31 553.42C57.418 553.065 56.6833 552.402 56.24 551.55C53.31 543.42 67.82 539.96 67.82 539.96L74.59 539.7L75.9 539.65H77L75.5 539.3L74.5 539.05L70.8 538.18L59.59 539.36L51.73 544.42L50.51 550.08Z" fill="black"/>
<path id="Vector_149" d="M41.59 553.7C44.33 556.24 62.26 553.7 63.02 553.64C61.6575 553.79 60.2791 553.695 58.95 553.36C58.2991 553.237 57.6834 552.972 57.1474 552.583C56.6114 552.194 56.1683 551.691 55.85 551.11C52.92 542.98 67.44 539.52 67.44 539.52L74.2 539.22H75.51L91.94 538.5L92.74 533.97C92.74 533.97 87.4 534.49 79.02 535.15C74.3 535.53 68.61 535.96 62.37 536.37C45.05 537.52 40.93 548.76 40.93 548.76C40.93 548.76 38.79 551.15 41.59 553.7Z" fill="#B07473"/>
<path id="Vector_150" d="M242.72 357.57C242.834 357.815 242.964 358.052 243.11 358.28L247.11 364.14L257.5 365.21L257.61 361.09L259.36 299.14C259.36 299.14 266.55 257.58 252.97 259.98C239.39 262.38 247.91 299.14 247.91 299.14C247.91 299.14 246.36 317.79 245.27 323.38C244.22 328.77 239.48 350.7 242.72 357.57Z" fill="#714246"/>
<path id="Vector_151" d="M219.4 511.46L222.4 516.52L229.02 527.84C229.02 527.84 241.02 532.23 244.08 528.9C245.77 527.07 247.58 520.69 248.87 515.34C249.87 511 250.61 507.34 250.61 507.34L219.4 511.46Z" fill="#714246"/>
<path id="Vector_152" opacity="0.1" d="M219.4 511.46L222.4 516.52C222.585 516.355 222.756 516.174 222.91 515.98C226.25 511.71 240.97 515.08 248.91 515.34C249.91 511 250.65 507.34 250.65 507.34L219.4 511.46Z" fill="black"/>
<path id="Vector_153" opacity="0.1" d="M68.92 553.19C71.0496 553.1 73.183 553.217 75.29 553.54C77.55 554.34 81.54 540.63 81.54 540.63L75.54 539.21L91.97 538.49L92.77 533.96C92.77 533.96 87.43 534.48 79.05 535.14C77.3173 536.135 75.7737 537.429 74.49 538.96L74.23 539.26C70.71 543.56 69.41 549.1 68.92 553.19Z" fill="black"/>
<path id="Vector_154" opacity="0.1" d="M198.49 732.83L203.1 735.83C209.98 734.59 216.26 732.63 217 729.58C217.005 729.53 217.005 729.48 217 729.43C215.54 728.31 214.57 727.43 214.57 727.43L198.49 732.83Z" fill="black"/>
<path id="Vector_155" opacity="0.1" d="M184.86 737.84C190.936 737.544 196.989 736.896 202.99 735.9C199.411 734.917 195.774 734.159 192.1 733.63C187.59 733.15 185.33 736.96 184.86 737.84Z" fill="black"/>
<path id="Vector_156" d="M69.42 558.47C69.42 561.8 78.61 563.93 78.61 563.93L106.61 588.84C106.61 588.84 124.19 596.7 135.38 608.02C146.57 619.34 156.38 609.62 156.38 609.62C168.23 606.69 202.33 565.4 202.33 565.4C202.33 565.4 203.13 612.55 204.73 616.01C206.33 619.47 204.2 628.93 203.27 632.93C202.678 636.269 202.453 639.662 202.6 643.05C202.6 643.05 189.81 691.93 190.88 696.2C191.95 700.47 183.95 720.44 183.95 720.44V737.09C183.95 737.09 215.25 735.89 216.95 728.83C218.65 721.77 209.15 718.7 209.15 718.7V716.97C215.41 713.77 216.6 691.79 216.6 691.79C216.6 691.79 225.93 664.62 227.26 660.09C228.59 655.56 227.26 648.77 227.26 648.77L228.19 642.91C228.19 642.91 230.19 638.91 230.19 638.11C230.452 636.082 231.234 634.157 232.46 632.52C233.92 630.79 230.86 626.66 230.86 626.66L233.52 619.73V612.14L239.78 584.57C239.78 584.57 246.31 552.47 244.04 541.95C241.77 531.43 246.71 526.09 246.71 526.09C236.02 531.7 230.63 519.24 228.86 513.87C228.41 512.49 228.19 511.58 228.19 511.58C228.19 511.58 213.51 506.16 199.84 507.45C197.065 507.682 194.33 508.263 191.7 509.18C176.51 514.64 174.12 537.28 174.12 537.28L160.66 557.8C153.74 576.04 143.35 577.91 143.35 577.91C143.35 577.91 118.97 561.53 118.35 560.73C117.73 559.93 108.35 555.93 108.35 555.93C107.251 553.998 105.572 552.462 103.55 551.54C100.35 550.21 100.09 545.27 100.09 545.27C99.69 533.69 92.9 532.76 92.9 532.76C69.29 530.77 69.42 555.14 69.42 558.47Z" fill="#444053"/>
<path id="Vector_157" d="M205.01 493.34H219.4V448.72H205.01V493.34Z" fill="#F86D70"/>
<path id="Vector_158" opacity="0.1" d="M205.01 493.34H219.4V448.72H205.01V493.34Z" fill="black"/>
<path id="Vector_159" opacity="0.1" d="M242.71 357.48C242.708 357.51 242.708 357.54 242.71 357.57C242.824 357.815 242.954 358.052 243.1 358.28L247.1 364.14L257.49 365.21L257.6 361.09C254.37 360.81 246.98 359.92 242.71 357.48Z" fill="black"/>
<path id="Vector_160" d="M243.11 358.28C243.11 358.28 243.64 381.72 237.78 384.91C231.92 388.1 229.65 404.78 229.65 404.78C229.65 404.78 247.37 416.47 251.37 421.6C255.37 426.73 264.42 438.99 262.56 441.93C260.7 444.87 267.09 458.18 267.09 458.18C267.09 458.18 255.37 482.18 258.03 491.18C260.69 500.18 260.96 524.18 260.96 524.18H266.02C266.02 524.18 264.42 504.47 264.42 496.48C264.42 488.49 269.75 459.98 269.75 459.98C269.75 459.98 272.15 431.98 269.75 431.21C267.35 430.44 253.23 419.21 252.17 414.16C251.11 409.11 259.59 362.01 259.59 362.01C259.59 362.01 248.71 361.47 243.11 358.28Z" fill="#F86D70"/>
<path id="Vector_161" opacity="0.1" d="M204.75 444.59C205.233 447.848 206.417 450.963 208.22 453.72L218.07 452.05C218.07 452.05 247.64 445.39 253.77 444.86C257.467 444.375 261.073 443.347 264.47 441.81C262.129 433.505 257.552 426.003 251.24 420.12L247.49 416.64C241.957 411.519 235.557 407.422 228.59 404.54C229.03 404.92 260.05 431.4 253.25 436.6C246.45 441.8 228.2 429.14 228.2 429.14L207.4 411.27L206.64 410.62L205.44 412.49C205.44 412.49 206.12 412.76 207.23 413.35C214.302 417.252 219.546 423.79 221.82 431.54C226.08 445.91 204.75 444.59 204.75 444.59Z" fill="black"/>
<path id="Vector_162" d="M198.36 511.19C198.36 511.19 218.07 522.11 222.87 515.98C223.92 514.63 226.11 514.04 228.87 513.88C228.42 512.5 228.2 511.59 228.2 511.59C228.2 511.59 213.52 506.17 199.85 507.46C198.93 509.7 198.36 511.19 198.36 511.19Z" fill="#444053"/>
<path id="Vector_163" d="M207.42 410.62L228.97 429.14C228.97 429.14 247.2 441.83 254.03 436.6C260.86 431.37 229.37 404.54 229.37 404.54C236.349 407.437 242.756 411.555 248.29 416.7L252.04 420.18C261.91 429.32 264.14 429.32 264.47 442.76C264.55 446.07 263.42 450.83 262.56 451.69C259.36 454.85 257.12 477.59 257.56 480.26C258 482.93 251.56 505.91 253.72 512.26C255.88 518.61 227.61 509.07 222.82 515.19C218.03 521.31 198.31 510.4 198.31 510.4C198.31 510.4 209.23 482.4 211.89 480.56C214.55 478.72 217.75 464.31 211.89 457.65C206.03 450.99 205.59 444.59 205.59 444.59C205.59 444.59 226.92 445.91 222.59 431.54C221.382 427.384 219.294 423.536 216.468 420.257C213.641 416.979 210.143 414.347 206.21 412.54L207.42 410.62Z" fill="#E8E8F0"/>
<path id="Vector_164" opacity="0.1" d="M236.19 457.78C236.19 457.78 227.92 473.36 217.19 477.41C216.86 477.54 216.52 477.65 216.19 477.76C205.02 481.15 236.98 462.57 236.19 457.78Z" fill="black"/>
<path id="Vector_165" d="M120.59 319.92C120.59 319.92 124.59 330.04 127.78 333.5C130.97 336.96 154.69 371.6 154.69 371.6L156.69 375.75L158.42 379.32L173.59 377.7L174.66 371.58L174.07 370.87C172.55 369.03 168.39 364.13 165.6 361.98C162.14 359.32 155.21 350.53 155.21 350.53C155.21 350.53 133.64 328.16 132.04 322.03C130.44 315.9 108.86 279.14 104.04 285.53C99.22 291.92 120.59 319.92 120.59 319.92Z" fill="#714246"/>
<path id="Vector_166" opacity="0.1" d="M156.67 375.75L158.4 379.32L173.59 377.7L174.66 371.58L174.07 370.87C172.43 371.7 160.29 377.52 156.67 375.75Z" fill="black"/>
<path id="Vector_167" opacity="0.1" d="M212.74 415.82C212.74 415.82 209.01 409.96 206.88 411.56C204.75 413.16 203.88 406.76 202.74 407.82C201.6 408.88 197.96 411.82 196.49 407.7C195.33 404.4 182.71 383.52 177.59 375.1L175.45 371.6C175.45 371.6 161.06 378.79 157.6 376.39V381.45L160.53 381.72L176.25 411.02C176.25 411.02 181.18 418.87 180.85 421.6C180.52 424.33 187.17 436.33 188.24 437.13C189.31 437.93 200.76 451.25 200.76 451.25C200.76 451.25 206.62 480.02 201.55 488.01C196.48 496 187.7 501.86 187.7 501.86C187.7 501.86 185.06 509.59 185.45 510.39C185.84 511.19 182.37 514.65 183.97 515.72C185.57 516.79 187.7 524.24 187.7 524.24C187.7 524.24 195.16 512.24 199.16 510.39C203.16 508.54 208.36 484.02 208.36 484.02C208.36 484.02 209.82 469.56 209.95 460.24C210.08 450.92 209.59 415.82 212.74 415.82Z" fill="black"/>
<path id="Vector_168" d="M211.94 415.82C211.94 415.82 208.21 409.96 206.08 411.56C203.95 413.16 203.08 406.76 201.94 407.82C200.8 408.88 197.16 411.82 195.69 407.7C194.53 404.4 181.91 383.52 176.79 375.1L174.65 371.6C174.65 371.6 160.26 378.79 156.8 376.39V381.45L159.73 381.72L175.45 411.02C175.45 411.02 180.38 418.87 180.05 421.6C179.72 424.33 186.37 436.33 187.44 437.13C188.51 437.93 199.96 451.25 199.96 451.25C199.96 451.25 205.82 480.02 200.76 488.01C198.081 492.033 194.818 495.636 191.08 498.7C187.975 501.273 185.786 504.781 184.84 508.7C184.659 509.237 184.594 509.806 184.65 510.37C185.04 511.17 181.58 514.63 183.17 515.7C184.76 516.77 186.9 524.22 186.9 524.22C186.9 524.22 194.36 512.22 198.36 510.37C202.36 508.52 207.56 484 207.56 484C207.56 484 209.03 469.54 209.15 460.22C209.27 450.9 208.75 415.82 211.94 415.82Z" fill="#F86D70"/>
<path id="Vector_169" opacity="0.1" d="M175.45 537.03C175.45 537.03 186.64 539.16 191.17 542.36C195.7 545.56 174.12 537.29 174.12 537.29L175.45 537.03Z" fill="black"/>
<path id="Vector_170" opacity="0.1" d="M202.35 565.4C202.35 565.4 214.08 575.12 211.94 583.91L204.45 614.82L202.35 565.4Z" fill="black"/>
<path id="Vector_171" opacity="0.1" d="M100.26 546.7C100.26 546.7 83.81 548.5 84.87 550.63C85.93 552.76 100.26 548.63 100.26 548.63V546.7Z" fill="black"/>
<path id="Vector_172" opacity="0.1" d="M226.59 627.6C226.59 627.6 227.65 628.93 221.52 627.6C215.39 626.27 219.93 622.17 219.93 622.17L226.59 627.6Z" fill="black"/>
<path id="Vector_173" opacity="0.1" d="M224.46 645.98C224.46 645.98 216.07 647.31 211.61 645.98C207.15 644.65 224.46 645.98 224.46 645.98Z" fill="black"/>
<path id="Vector_174" opacity="0.1" d="M207.28 717.91C207.28 717.91 205.82 716.31 198.49 719.24C191.16 722.17 188.24 722.3 186.1 721.37C183.96 720.44 207.28 717.91 207.28 717.91Z" fill="black"/>
<path id="Vector_175" opacity="0.1" d="M215.41 544.42L205.02 558.87C205.02 558.87 210.59 546.22 215.41 544.42Z" fill="black"/>
<path id="Vector_176" opacity="0.1" d="M195.16 411.56C195.16 411.56 194.72 416.35 188.01 418.22C181.3 420.09 180.01 421.6 180.01 421.6" fill="black"/>
<path id="Vector_177" opacity="0.1" d="M177.81 376.78C177.81 376.78 168.97 383.06 159.73 381.72L177.81 376.78Z" fill="black"/>
<path id="Vector_178" opacity="0.1" d="M184.59 511.05C184.59 511.05 187.17 512.67 193.37 505.58L184.59 511.05Z" fill="black"/>
<path id="Vector_179" opacity="0.1" d="M248.91 435.91C249.16 434.62 248.26 433.41 247.41 432.4L245.67 430.33C245.338 429.9 244.959 429.507 244.54 429.16C243.54 428.36 242.15 428.16 241.07 427.39" fill="black"/>
</g>
</g>
<defs>
<linearGradient id="paint0_linear" x1="46153.5" y1="394046" x2="46153.5" y2="151080" gradientUnits="userSpaceOnUse">
<stop stop-color="#808080" stop-opacity="0.25"/>
<stop offset="0.54" stop-color="#808080" stop-opacity="0.12"/>
<stop offset="1" stop-color="#808080" stop-opacity="0.1"/>
</linearGradient>
<clipPath id="clip0">
<rect width="1125.18" height="799.4" fill="white"/>
</clipPath>
</defs>
</svg>
